<?xml version="1.0" encoding="UTF-8"?>
<svg id="Calque_2" data-name="Calque 2" xmlns="http://www.w3.org/2000/svg" viewBox="0 0 428.28 428.28">
  <defs>
    <style>
      .cls-1 {
        fill: #d64045;
        stroke: #a13038;
        stroke-miterlimit: 10;
        stroke-width: 15px;
      }

      .cls-2 {
        fill: #dadada;
      }

      .cls-3 {
        fill: #fff;
      }
    </style>
  </defs>
  <g id="Calque_2-2" data-name="Calque 2">
    <rect class="cls-1" x="7.5" y="7.5" width="413.28" height="413.28" rx="26.15" ry="26.15"/>
    <g>
      <path class="cls-3" d="M44.39,396.75c-2.37,0-4.29-1.93-4.29-4.3v-51.43c0-2.32,1.89-4.24,4.22-4.28,21.98-.42,42.88-9.04,58.84-24.27,15.72-15,25.27-35.06,26.96-56.57H56.11c-2.37,0-4.29-1.92-4.29-4.29v-48.74c0-2.37,1.92-4.29,4.29-4.29h135.23v-12.44h-100.35c-2.37,0-4.29-1.92-4.29-4.29v-31.3c0-2.37,1.92-4.29,4.29-4.29h100.35v-12.44h-117.79c-2.37,0-4.29-1.92-4.29-4.29v-31.3c0-2.37,1.92-4.29,4.29-4.29h67.83l-20.63-20.63c-.81-.81-1.26-1.89-1.26-3.03s.45-2.22,1.26-3.03l34.46-34.46c.81-.81,1.89-1.26,3.03-1.26s2.22.45,3.03,1.26l34.46,34.46c.81.81,1.26,1.89,1.26,3.03s-.45,2.22-1.26,3.03l-20.63,20.63h89.75l-20.63-20.63c-.81-.81-1.26-1.89-1.26-3.03s.45-2.22,1.26-3.03l34.46-34.46c.81-.81,1.89-1.26,3.03-1.26s2.22.45,3.03,1.26l34.46,34.46c1.67,1.67,1.67,4.39,0,6.07l-20.63,20.63h67.83c2.37,0,4.29,1.92,4.29,4.29v31.3c0,2.37-1.92,4.29-4.29,4.29h-117.79v12.44h100.35c2.37,0,4.29,1.92,4.29,4.29v31.3c0,2.37-1.92,4.29-4.29,4.29h-100.35v12.44h135.23c2.37,0,4.29,1.92,4.29,4.29v48.74c0,2.37-1.92,4.29-4.29,4.29h-193.67c-.19,4.17-.56,8.34-1.1,12.44h159.89c2.37,0,4.29,1.92,4.29,4.29v31.3c0,2.37-1.92,4.29-4.29,4.29h-65.47v29.88h100.35c2.37,0,4.29,1.92,4.29,4.29v48.74c0,2.37-1.92,4.29-4.29,4.29H125.87c-2.37,0-4.29-1.92-4.29-4.29v-17.3c-23.09,14.66-49.74,22.58-77.14,22.91h-.05ZM226.22,338.1v-29.88h-48.23c-4.65,10.58-10.55,20.62-17.58,29.88h65.81Z"/>
      <path class="cls-2" d="M281.75,34.03c.46,0,.92.17,1.27.52l11.07,11.07,12.33,12.33,11.07,11.07c.7.7.7,1.83,0,2.53l-11.07,11.07-12.33,12.33-1.5,1.5h73.87c.99,0,1.79.8,1.79,1.79v31.3c0,.99-.8,1.79-1.79,1.79h-118.5c-.99,0-1.79.8-1.79,1.79v13.86c0,.99.8,1.79,1.79,1.79h101.06c.99,0,1.79.8,1.79,1.79v31.3c0,.99-.8,1.79-1.79,1.79h-101.06c-.99,0-1.79.8-1.79,1.79v13.86c0,.99.8,1.79,1.79,1.79h135.94c.99,0,1.79.8,1.79,1.79v48.74c0,.99-.8,1.79-1.79,1.79h-194.35c-.96,0-1.74.76-1.78,1.72-.19,4.62-.6,9.18-1.22,13.68-.15,1.08.68,2.04,1.77,2.04h160.71c.99,0,1.79.8,1.79,1.79v31.3c0,.99-.8,1.79-1.79,1.79h-66.18c-.99,0-1.79.8-1.79,1.79v31.3c0,.99.8,1.79,1.79,1.79h101.06c.99,0,1.79.8,1.79,1.79v48.74c0,.99-.8,1.79-1.79,1.79H125.87c-.99,0-1.79-.8-1.79-1.79v-18.6c0-1.05-.86-1.79-1.79-1.79-.32,0-.65.09-.96.29-22.23,14.39-48.61,22.88-76.92,23.23,0,0-.01,0-.02,0-.99,0-1.79-.81-1.79-1.8v-51.43c0-.98.79-1.76,1.77-1.78,46.85-.9,85.08-37.68,88.3-83.94.07-1.03-.76-1.9-1.79-1.9H56.11c-.99,0-1.79-.8-1.79-1.79v-48.74c0-.99.8-1.79,1.79-1.79h135.94c.99,0,1.79-.8,1.79-1.79v-13.86c0-.99-.8-1.79-1.79-1.79h-101.06c-.99,0-1.79-.8-1.79-1.79v-31.3c0-.99.8-1.79,1.79-1.79h101.06c.99,0,1.79-.8,1.79-1.79v-13.86c0-.99-.8-1.79-1.79-1.79h-118.5c-.99,0-1.79-.8-1.79-1.79v-31.3c0-.99.8-1.79,1.79-1.79h73.87l-1.5-1.5-12.33-12.33-11.07-11.07c-.7-.7-.7-1.83,0-2.53l11.07-11.07,12.33-12.33,11.07-11.07c.35-.35.81-.52,1.27-.52s.92.17,1.27.52l11.07,11.07,12.33,12.33,11.07,11.07c.7.7.7,1.83,0,2.53l-11.07,11.07-12.33,12.33-1.5,1.5h101.82l-1.5-1.5-12.33-12.33-11.07-11.07c-.7-.7-.7-1.83,0-2.53l11.07-11.07,12.33-12.33,11.07-11.07c.35-.35.81-.52,1.27-.52M158.96,340.6h67.97c.99,0,1.79-.8,1.79-1.79v-31.3c0-.99-.8-1.79-1.79-1.79h-50.53v-.13c-4.91,11.55-11.27,22.34-18.86,32.14-.91,1.17-.07,2.87,1.42,2.87M281.75,29.03c-1.81,0-3.52.71-4.8,1.99l-11.07,11.07-12.33,12.33-11.07,11.07c-1.28,1.28-1.99,2.99-1.99,4.8s.71,3.52,1.99,4.8l11.07,11.07,5.29,5.29h-77.68l5.29-5.29,11.07-11.07c1.28-1.28,1.99-2.99,1.99-4.8s-.71-3.52-1.99-4.8l-11.07-11.07-12.33-12.33-11.07-11.07c-1.28-1.28-2.99-1.99-4.8-1.99s-3.52.71-4.8,1.99l-11.07,11.07-12.33,12.33-11.07,11.07c-2.65,2.65-2.65,6.95,0,9.6l11.07,11.07,5.29,5.29h-61.8c-3.74,0-6.79,3.05-6.79,6.79v31.3c0,3.74,3.05,6.79,6.79,6.79h115.29v7.44h-97.85c-3.74,0-6.79,3.05-6.79,6.79v31.3c0,3.74,3.05,6.79,6.79,6.79h97.85v7.44H56.11c-3.74,0-6.79,3.05-6.79,6.79v48.74c0,3.74,3.05,6.79,6.79,6.79h71.26c-2.2,19.87-11.33,38.32-25.94,52.26-15.51,14.79-35.8,23.17-57.16,23.58-3.68.07-6.67,3.11-6.67,6.78v51.43c0,3.75,3.05,6.8,6.79,6.8h.1c26.35-.32,52.02-7.55,74.6-20.95v12.83c0,3.74,3.05,6.79,6.79,6.79h258.02c3.74,0,6.79-3.05,6.79-6.79v-48.74c0-3.74-3.05-6.79-6.79-6.79h-97.85v-24.88h62.97c3.74,0,6.79-3.05,6.79-6.79v-31.3c0-3.74-3.05-6.79-6.79-6.79h-157.07c.28-2.47.49-4.95.65-7.44h191.3c3.74,0,6.79-3.05,6.79-6.79v-48.74c0-3.74-3.05-6.79-6.79-6.79h-132.73v-7.44h97.85c3.74,0,6.79-3.05,6.79-6.79v-31.3c0-3.74-3.05-6.79-6.79-6.79h-97.85v-7.44h115.29c3.74,0,6.79-3.05,6.79-6.79v-31.3c0-3.74-3.05-6.79-6.79-6.79h-61.8l5.29-5.29,11.07-11.07c1.28-1.28,1.99-2.99,1.99-4.8s-.71-3.52-1.99-4.8l-11.07-11.07-12.33-12.33-11.07-11.07c-1.28-1.28-2.99-1.99-4.8-1.99h0ZM179.61,310.72h44.11v24.88h-58.38c5.55-7.84,10.33-16.17,14.27-24.88h0Z"/>
    </g>
  </g>
</svg>